<svg xmlns="http://www.w3.org/2000/svg" viewBox="0 0 500 500" preserveAspectRatio="xMidYMid meet">
  <path d="M 12.500000000000028 193.61484304355747 L 14.301985100962213 198.48695259023793 L 17.458015760334547 206.77485682302583 L 21.90877578270849 218.46628342597555 L 30.60166645129405 241.33369934980527 L 42.16014296170815 271.83858674589936 L 45.47162295987974 280.83010377642853 L 51.935042845587134 298.21588511389035 L 56.414438272560886 310.2427550273472 L 60.30067174777466 320.7764931318128 L 61.589264952730815 324.2741032597377 L 62.34605778754445 326.2990354390168 L 64.55507471036793 332.3329242561632 L 65.29141368483619 334.3374025750969 L 66.76409163319138 338.24408991094674 L 71.14121775814758 349.9641519183509 L 72.59344184644809 353.8503853938554 L 73.94339663273101 357.3889032424711 L 77.9523532705984 368.0044567886088 L 78.50460750108627 369.4975885976001 L 82.75491969184299 380.2133660595465 L 108.90518020938987 380.22563837578275 L 152.94847780206848 380.6756233045437 L 184.23470266559414 381.182879042359 L 184.08129871242247 371.2770744521533 L 184.80331998459084 367.759010463883 L 184.8053653705091 367.5749257201932 L 185.00785858862594 353.543577487948 L 185.0487663093167 349.2073590836826 L 185.0692201696621 348.143758343107 L 185.11012789035283 344.93250226074395 L 185.11012789035283 343.8484476596776 L 185.01399474667141 335.3703225251545 L 279.44333204158204 335.95325754645114 L 278.9933471128211 327.0558282736851 L 278.4820006027333 316.9516212376351 L 278.68653920676843 308.9337079620457 L 293.9144382722702 308.8212117298554 L 487.01115273646656 310.33070662706484 L 487.5 288.091224217495 L 487.41818455832777 273.6917064978703 L 487.2934160100466 259.22469103916404 L 486.1889075484895 229.89180984370864 L 483.1740085259072 228.19618481689125 L 472.10847005115386 221.1334668218144 L 474.5608879127849 218.66673125788344 L 468.8113077552821 214.9625371400051 L 466.9745510916747 216.5620290229958 L 459.51298281884567 212.76783791933622 L 455.08472204273534 211.17243680847275 L 450.4887396117348 208.8141067046048 L 445.27095982437453 205.37785815786134 L 438.44550660991445 201.4813977523295 L 435.08902811863425 198.57899496193747 L 431.89004435265286 196.13271325849723 L 426.76635232305574 191.4303707532066 L 421.1865392069428 187.07369848859577 L 416.45147052477984 184.0628902381407 L 411.11301296126555 181.35070834948385 L 403.4980407355555 176.3517848684586 L 397.70550747115306 171.8478448091576 L 401.70014640672053 167.93297592905333 L 396.7953106834584 165.36397106325015 L 394.4247082634995 163.95060930986747 L 391.9129742067506 161.75591008919855 L 389.3337424106294 159.63484476609275 L 385.586595185706 157.86558584171223 L 382.9582741249303 155.5767988632802 L 379.66111182876796 153.83003918530866 L 376.46826422083205 151.09126727826097 L 373.676312276712 147.8084226845438 L 368.667161865514 144.54807733723567 L 366.4929165053358 143.59083667065946 L 361.00310037456813 141.17319037167366 L 356.59733884501213 139.3466606382389 L 351.15456659356204 136.3706239504291 L 347.2826508203575 134.42341644069498 L 343.27164879657187 132.87710459463136 L 340.8151401628136 131.54146751079364 L 336.85936356201853 129.0256426819175 L 333.5826551264922 126.16005684023433 L 331.90543857381124 124.38057098568113 L 328.55714162678544 122.70335443314548 L 324.6729535374899 118.81712095778636 L 317.7738664256121 124.46034104128971 L 299.85628471771713 140.04618266385296 L 293.86330362140677 145.22100934431353 L 286.72490634284856 151.6639753693849 L 281.1410024546084 156.67517116664646 L 279.2797011582377 158.20921069632846 L 278.07292339495376 159.08872669350504 L 276.7229686086708 159.66143478448362 L 275.08665977697126 159.9068811093548 L 267.2528312449262 159.96824269053627 L 238.3310726436046 159.53871162212067 L 187.11460620943188 158.55692632307188 L 186.78734444303382 180.524372389525 L 186.52144425796257 195.78295224569018 L 111.5375920422928 194.6191275891606 L 117.56739008745737 200.5589286483986 L 123.45401110962298 207.2452956121322 L 108.22406665820293 206.94666925033394 L 86.44479610727606 206.8525814925708 L 86.34048141934025 194.31436506917152 L 69.97125694342716 194.14459802792703 L 42.309456142752595 193.87460707058324 L 12.500000000000028 193.61484304355747 Z" fill="black" />
</svg>