<svg xmlns="http://www.w3.org/2000/svg" viewBox="0 0 500 500" preserveAspectRatio="xMidYMid meet">
  <path d="M 73.80582393080113 252.96327106275527 L 75.48180866155553 252.9349790554579 L 77.03364637526593 252.93244544286452 L 76.96861698532001 255.10628504828674 L 76.96186068511108 255.24141105330528 L 76.93610229037705 256.03569860142477 L 76.93779136545928 256.03569860142477 L 77.41411053306862 256.0238750759991 L 77.43015674616981 256.0238750759991 L 77.44620295927103 256.0238750759991 L 77.46267144111278 256.0238750759991 L 77.478717654214 256.0238750759991 L 77.49476386731519 256.0238750759991 L 77.51081008041638 256.0238750759991 L 77.5268562935176 256.0238750759991 L 77.54290250661879 256.0238750759991 L 77.55894871965998 256.0238750759991 L 77.5749949327612 256.0238750759991 L 77.59104114586239 256.0238750759991 L 77.60708735896358 256.0238750759991 L 77.6231335720648 256.0238750759991 L 77.639179785166 256.0238750759991 L 77.65522599826721 256.0242973447697 L 77.6712722113684 256.0242973447697 L 77.6873184244096 256.0242973447697 L 77.70336463751079 256.0242973447697 L 77.71941085061201 256.02471961354024 L 77.7354570637132 256.02471961354024 L 77.75150327681442 256.02471961354024 L 77.76754948991561 256.0251418822808 L 77.7835957030168 256.0251418822808 L 77.79921964731744 256.02556415105136 L 77.81526586041866 256.02556415105136 L 77.83131207351985 256.0259864198219 L 77.84735828662104 256.0259864198219 L 77.86340449972226 256.0264086885925 L 77.87902844402291 256.026830957363 L 77.8950746571241 256.026830957363 L 77.91112087022529 256.0272532261336 L 77.92674481452593 256.0272532261336 L 77.94279102762715 256.02767549487413 L 77.95841497198779 256.0280977636447 L 77.97446118502899 256.02852003241526 L 77.99050739813018 256.02852003241526 L 78.00613134249085 256.0289423011858 L 78.02217755559204 256.0293645699564 L 78.03780149989268 256.0297868387269 L 78.05384771299387 256.0302091074675 L 78.06947165729451 256.03063137623803 L 78.08551787039573 256.0310536450086 L 78.10114181475637 256.03147591377916 L 78.11718802785757 256.03189818254975 L 78.13281197215821 256.0323204513203 L 78.14843591651885 256.0327427200608 L 78.16448212956004 256.0331649888314 L 78.18010607392071 256.03358725760194 L 78.19573001822135 256.03400952637253 L 78.21177623132255 256.03443179514306 L 78.22740017568319 256.03485406391366 L 78.24302411998383 256.03569860142477 L 78.25864806434447 256.0361208701953 L 78.27427200864511 256.03654313896584 L 78.29031822174633 256.03696540773643 L 78.30594216604695 256.03780994524755 L 78.32156611040762 256.0382322140181 L 78.33719005470826 256.0386544827887 L 78.3528139990689 256.03949902032974 L 78.36843794336954 256.03992128910033 L 78.38406188773018 256.04034355784086 L 78.39968583203083 256.041188095382 L 78.41530977639147 256.0416103641526 L 78.43093372069211 256.04245490169365 L 78.46007026553062 256.04372170797535 L 78.47569420983126 256.0441439767459 L 78.4913181541919 256.044988514287 L 78.50694209849254 256.0454107830576 L 78.52256604285319 256.0462553205687 L 78.53776771841328 256.04667758933925 L 78.54072359977718 256.0470998581098 L 78.5432572123405 256.0470998581098 L 78.55212485643224 255.27054759811378 L 78.55508073779615 255.00071785687726 L 78.57872778864737 252.93328998040565 L 78.58421728263465 252.42361158028223 L 78.60237483955862 250.5943432876153 L 80.1584352408546 250.60025505031308 L 80.41559691915438 250.6010995878542 L 80.40419566243929 252.29988683194875 L 80.39701709342981 252.93455678668732 L 80.87967029256754 252.93455678668732 L 81.69633808528658 252.93624586173954 L 81.70182757921381 252.35182589012737 L 81.71745152357448 250.60490000675924 L 83.23212958583576 250.60912269440482 L 83.22030606038012 252.939624011874 L 83.55136477265754 252.94046854941513 L 84.77003243026772 252.94131308695626 L 86.09680089182075 252.94257989323793 L 86.29568948044351 252.94257989323793 L 87.8576616444673 252.94215762446737 L 87.8576616444673 252.76733835549638 L 87.8555503006445 250.6222130261421 L 89.40443213299099 250.6272802513288 L 89.40485440173154 252.94215762446737 L 89.61387744072772 252.94215762446737 L 91.94986825215418 252.9438466995496 L 92.18845010472941 252.9417353556968 L 93.48270387133945 252.9417353556968 L 93.48143706505778 252.72637828523227 L 93.46707992703881 250.5960323626675 L 94.20647253561575 250.59856597526087 L 94.90617188030023 250.6010995878542 L 94.89983784877185 251.50222113369483 L 94.89519289238572 252.19051922166426 L 94.8905479359396 252.9548256874341 L 95.03580839133153 255.2832156610805 L 95.08352476183455 256.0458330517981 L 95.19964867238801 256.03443179514306 L 95.63543003850378 256.0057175190751 L 96.43520708058048 255.98882676846281 L 96.43562934938106 255.98882676846281 L 96.43942976828609 255.22367576515185 L 96.44323018713109 254.82336497531293 L 96.44998648740003 252.95609249374579 L 99.58702114724488 252.95820383756856 L 99.58153165325763 250.62432436996488 L 101.20515505706285 250.63276974528605 L 101.2055773258634 250.9304692250494 L 101.20895547596788 252.9590483751097 L 101.21275589487288 255.5171525572396 L 101.21402270115456 256.2489443280665 L 101.21824538880014 256.24936659683704 L 101.51214444968846 256.2861039794556 L 101.83644686169694 256.3371985000931 L 102.0758732518133 256.38364806431446 L 102.54205796904924 256.4790808053506 L 102.7574150395138 256.522574488208 L 102.75783730831435 255.75488987230372 L 102.7612154584188 255.38751604620833 L 102.755303695691 252.96031518139137 L 104.32149854742036 252.96158198770303 L 105.88811566789028 252.96242652521414 L 107.45051010065461 252.96369333152583 L 107.45853320720522 256.26625734744937 L 107.46022228228745 257.04069826362263 L 107.47415715156586 257.04112053239317 L 107.65235457064131 257.04407641375707 L 108.59190257412268 257.0487213701732 L 109.06991081681426 257.036475575977 L 109.06822174179203 257.4013157894491 L 109.06315451660535 259.43791804605996 L 109.05682048507697 261.8123353151572 L 109.05302006623194 262.5589064928036 L 109.04710830350413 263.2172234983934 L 109.06230997906422 265.47002736301 L 110.65975271939487 265.4734055131144 L 110.64877373148036 263.19991047901055 L 110.65384095666704 262.5010556718972 L 110.65088507536316 261.73970508749125 L 110.65764137557207 259.37415546245575 L 110.68677792041058 259.37288865617404 L 111.02923788934305 259.3450189176172 L 111.48359908112337 259.3091260725398 L 111.68797716373342 259.2909685156158 L 112.32349165595309 259.23945172620773 L 112.32349165595309 259.1575315856795 L 112.32813661239925 258.064277751485 L 112.3315147625037 256.78522566040505 L 113.07217417742231 256.6826143503595 L 113.58438619013907 256.60618370378853 L 113.63168029190157 256.60660597255907 L 113.70135463817363 256.6234967231714 L 113.79636511043915 256.65390007432154 L 113.8580163502206 256.6961269508673 L 113.9103776771698 256.7628454158355 L 113.93106884671712 256.835897912302 L 113.9234680089071 257.73364130800815 L 113.90362137696087 258.96751064114846 L 113.83985879329663 258.9818677791974 L 113.5881866089841 259.026205999596 L 113.09370988445076 259.110237483947 L 112.6689075062495 259.18202317410186 L 112.49451050601905 259.2136933315337 L 112.32729207485812 259.2390294574672 L 112.32729207485812 259.2415630700605 L 112.32349165595309 259.58148942636967 L 112.31757989322529 260.6705205729186 L 112.31251266803858 261.59402236332875 L 112.31420174312083 262.3553729477647 L 112.31166813055748 263.19062056617827 L 112.32391392475367 265.47720593201944 L 113.07639686506789 265.4788950070717 L 113.8149449361637 265.48016181338335 L 114.62907911625939 265.47171643806223 L 114.61472197824042 266.13172251873425 L 115.19660833728923 266.1359452063798 L 117.447300858023 266.14354604415985 L 118.52999797313353 266.1473464630649 L 119.69503749745286 266.1507246131994 L 120.77013377475333 266.1541027633038 L 122.72523815957655 266.15959225726107 L 123.69603405177922 266.16254813862497 L 124.70736774541545 266.16634855753 L 125.77401864736478 266.170148976405 L 127.71434362542847 266.1773275454145 L 129.6390446591315 266.184506114424 L 130.72174177418202 266.188306533329 L 131.16934666575344 266.18999560838125 L 132.66248902098624 266.19295148974516 L 134.62603878116062 266.1967519086502 L 134.60957029931888 267.13123268697484 L 134.59352408621766 268.0437554894705 L 134.57747787311646 268.976547192743 L 134.57578879803424 269.06944632118575 L 134.5631207350975 269.9008935206943 L 134.54876359707853 270.80961590431497 L 134.53440645899957 271.73438450103686 L 134.5200493209806 272.6549304100831 L 134.50611445170216 273.5754763191594 L 134.4917573136832 274.5040453347563 L 134.47908925074648 275.3126900209247 L 134.47740017566423 275.4186794811048 L 134.4638875751864 276.30502162015586 L 134.4377069117118 278.0367458279639 L 134.42377204243337 278.9530690493646 L 134.40983717315498 279.86939227076533 L 134.39632457267712 280.7827596108321 L 134.38196743465815 281.7214630768024 L 134.36803256537974 282.63145226673475 L 134.35874265254745 283.2378302141459 L 134.35409769610135 283.5380633065326 L 134.33889602054126 284.47381089113895 L 135.22017093440564 284.4505861090283 L 136.58325450980664 284.4484747652055 L 137.93831497871702 284.44594115261214 L 137.92986960342586 285.1870228362713 L 137.92100195933415 285.92177048846213 L 136.81930274981852 285.8955898249875 L 135.9460509425047 286.11897000200264 L 135.91395851630233 287.3870431051681 L 135.88524424026437 288.52505742853174 L 134.84392946424853 288.5237906222501 L 134.8401290453435 288.9169228430495 L 134.8321059387929 289.70318728461837 L 134.83083913251124 289.83915782714803 L 134.82154921961893 290.76434869264045 L 134.82070468213783 290.85429193971925 L 134.81268157558725 291.6848946016867 L 134.80930342542277 292.0032852509674 L 134.80339166269496 292.61008546717915 L 134.7979021687677 293.17888149449067 L 134.7941017498627 293.5352763326716 L 134.78523410583097 294.45539997294725 L 134.7759441929387 295.379324032158 L 132.62026214447047 295.3548324437357 L 131.5844368623819 295.34976521854895 L 131.1706134720351 295.3476538747262 L 129.5887946760651 295.33540808053 L 126.94454766567137 295.31682825483546 L 126.52776839402068 295.3142946422421 L 126.40488818325834 295.313450104701 L 126.40193230189443 295.313450104701 L 126.39770961418884 295.90884906422764 L 126.39728734544829 295.9354519964728 L 126.39348692654326 296.45104215929405 L 126.39264238900215 296.574344638857 L 126.38884197015713 297.05404195660077 L 126.37490710087872 298.86008546718705 L 126.35759408149585 301.1390699952482 L 126.35126004996746 301.94644787513494 L 126.34408148095798 302.9020420917475 L 126.33648064320795 303.8998631849059 L 126.33268022430292 304.38336092155475 L 126.32719073037568 305.1210644550794 L 126.32381258021121 305.5496672521857 L 126.31747854874284 306.6952824133294 L 126.31114451727447 307.8463870684303 L 126.30903317345168 308.2800570907233 L 126.3048104858061 309.02705053711026 L 126.29974326061941 309.9902455915029 L 126.29847645427773 310.1777329234406 L 126.2938314978916 311.0505624619839 L 126.28707519762267 312.30596750218257 L 126.28454158499932 312.69867745421146 L 126.58941963380214 312.69825518544087 L 128.8844503749945 312.69529930407697 L 130.56465779339447 312.69276569148366 L 130.55410107428054 313.8877862982126 L 126.80013174788056 315.40753158569055 L 126.77141747178261 315.3589706776464 L 126.69752043780497 315.2424244983224 L 126.61982298492231 315.1220779001234 L 126.49609823661885 314.951481318798 L 126.42980204039125 314.8704057158109 L 126.34408148095798 314.7669498682242 L 126.26849537195812 314.68207384633206 L 126.09832105937328 314.50725457739105 L 126.05609418279748 314.4696726572314 L 125.82257955540894 314.25811600567187 L 125.60088845347603 314.0626055671836 L 125.3082561989294 313.80248800754987 L 120.76675562464888 316.026999864869 L 119.54470981693424 316.6325332747691 L 119.68236943451612 316.8022853185534 L 119.39100398619115 316.89518444696614 L 119.09288223765725 316.9897726504911 L 117.46503614620644 317.5078964259057 L 114.65779339235732 318.2485558407943 L 110.57783257886663 319.4760911424662 L 111.47093101818663 321.66386561716683 L 111.97934261199839 322.7241824876478 L 112.21665765829195 323.26426423889137 L 112.65243902440773 324.35371765418085 L 112.85090534422994 324.9022447807456 L 113.0671069522356 326.6567715018938 L 113.5379366259177 326.64199209510423 L 113.74780420239497 331.6196963042711 L 113.66166137422118 331.6205408418122 L 113.49444294306025 331.622652185635 L 113.49528748060135 331.74637693396846 L 119.2499662185048 331.6175849604483 L 120.66034389566826 337.39337713666964 L 121.80469225050027 338.5609502736123 L 126.62911289775458 340.3315232078617 L 129.86833659887446 340.80404195659605 L 129.86453617996943 341.05233599080407 L 134.03444024053897 341.0903401797043 L 134.04921964729851 342.69285014525167 L 138.15873927436826 342.71691946487346 L 142.3539794608713 342.75281230995085 L 142.3607357610802 341.0303780149751 L 155.45486791434098 341.32301026955173 L 155.44262212014482 342.8245980001057 L 155.93034254440923 342.45384602390584 L 157.77987973785295 342.4627136679676 L 160.12769407473502 342.4736926558821 L 162.5671407337182 342.48509391256715 L 162.8382372812364 342.5142304573757 L 162.97505236133713 338.1217907573621 L 167.1225761772771 338.1458600770139 L 167.14537869064725 337.0585180055172 L 167.16860347275792 335.948795689451 L 167.19647321125473 334.63216167824135 L 171.08472400513216 334.67185494222383 L 171.17804540231543 334.6726994797349 L 171.25067563001141 334.673544017276 L 171.1987365718628 338.1500827646595 L 171.1311735693535 341.18957333961544 L 194.73388622389893 341.408730828985 L 196.98120059452822 341.27191574891424 L 196.58088980471928 340.95352509963357 L 196.54457469087131 334.43749577729415 L 204.1715931355886 334.48394534151555 L 204.10994189580714 341.4467350178852 L 211.43546044182608 341.48516147555597 L 211.22010337136155 357.40933889600603 L 216.12982230930857 357.405538477101 L 216.1395344908814 351.6897084656389 L 236.9290926288499 351.7817630565405 L 236.85097290722666 357.60104891558933 L 257.68360245931206 357.60696067831714 L 257.85208769675467 334.38344537529275 L 277.7928856158017 334.4793003850994 L 277.85073643673815 343.1928163637422 L 279.7420782379571 343.3908604148239 L 280.46542463343286 342.70974089586394 L 285.9490068238781 342.78701607997607 L 286.68375447600886 341.98048273763044 L 298.83411593808273 328.94504594281716 L 298.56386392810566 328.9496908992333 L 299.2116242145815 327.9902962637457 L 299.2416052969011 327.9459580433471 L 299.32352543742934 327.8213887575025 L 299.5827984595519 327.4282565367031 L 299.6102459293082 327.387296466439 L 299.9683298425413 326.7897861630895 L 301.33690291192954 324.43183737583405 L 302.0594047699242 322.8905563812976 L 302.8287784608807 320.8210171609732 L 303.18559556783214 319.737053239641 L 303.32114384159127 319.32534119314704 L 302.95208094044364 319.70496081343856 L 302.56232686980866 319.69862678197023 L 302.6581818796153 319.3857256266168 L 303.03400108097185 317.7946169177545 L 303.13787919732914 317.22455408416135 L 303.315654347664 316.24784642929086 L 303.45753665289146 314.6090213498955 L 303.5825282075366 313.1627508276246 L 303.566904263236 312.6298476454205 L 303.5504357813342 312.04711674886056 L 303.5191878926729 310.9783545030584 L 303.33212282950575 309.16386561718105 L 303.1146544152184 307.89283663265167 L 303.04920275653194 307.50941659345506 L 302.645091547878 305.9043730153144 L 302.2046652253161 304.38209411524304 L 303.1480136477025 304.38927268425255 L 301.10507735962324 297.103447402186 L 300.99655428687987 296.7170714816555 L 300.83482534964617 296.13518512260674 L 299.8551618133518 292.75872407267553 L 299.80026687383923 292.5492787649388 L 298.672387000849 288.23875920545345 L 298.09767921086967 286.04127254915 L 297.18177825823955 282.7057715694829 L 299.0731200594585 287.14381629617674 L 299.8961218836459 289.07527363014873 L 301.71736706979226 293.52514188229816 L 303.0264002432218 296.72382778189444 L 303.19192959936055 297.1156931963822 L 306.27955881356013 304.4137642726749 L 309.41743801094606 312.0977890007275 L 309.69149043982816 312.7687740693141 L 312.4683298425571 319.3785470576073 L 321.27052226196713 341.45137997430135 L 322.5664651037194 341.40577494762107 L 319.9674008512653 335.1811110735467 L 340.7426018512149 335.2288274440797 L 340.7552699141516 343.80975103032733 L 375.073474765215 344.10280555367456 L 406.5236301601289 344.2290639145714 L 405.98734882776034 337.98750928988466 L 405.77199175729584 336.96181845819945 L 405.1871495168831 335.5843777447195 L 404.67324842914405 334.8614536179843 L 398.07994392269256 326.2851749881528 L 402.7650158772828 322.744029119624 L 402.92801162079815 304.6747263698197 L 403.0209107492409 293.68307040062683 L 402.9786838726651 289.4899415579766 L 413.24826025263394 288.4511603945541 L 424.77619755422535 288.1640176339347 L 444.92686304974967 288.38359739204486 L 444.9184176744585 288.8607610971953 L 446.5145936085075 289.11834504423564 L 453.9338558205103 289.8362019458141 L 454.6474900344132 289.86576075939314 L 454.1829943922595 292.59783967298296 L 462.34544963174426 292.9145412472114 L 466.1754273359446 292.7540791162594 L 465.76582663330345 283.5570654009677 L 470.377001553916 288.0162235659494 L 477.1755286804587 284.16513242346116 L 477.2304236199712 283.4557208972338 L 477.6991419498305 283.4388301465915 L 477.8131545165611 283.4303847712703 L 479.4557800148315 283.1896915748723 L 480.122964664513 283.0883470711384 L 486.0727315721342 282.65341024253377 L 487.5 282.4591666103571 L 482.9711674886562 275.04539389228154 L 481.47126883315445 275.041171204636 L 469.2888149449382 274.9018225119719 L 468.2745253698781 273.258774744931 L 464.2553712586878 267.2308881156565 L 480.66558002834995 267.4821380311985 L 469.49783798387443 249.63030369568153 L 468.50888453480775 247.31584859131354 L 468.2614350381408 246.64950847914312 L 468.036788054844 246.02201709341404 L 467.8222755219206 245.37510134447928 L 467.6276096209433 244.6863809877693 L 467.40127356256426 243.8777363016009 L 467.2361664752261 243.22364198362664 L 467.0871056009292 242.55983548407957 L 466.9676035402713 241.96021383687733 L 466.9139754070404 241.680671914038 L 466.8734376055469 241.43828964258773 L 466.76364772646184 240.8091091818064 L 466.68003851091134 240.2432690358588 L 466.5938956826775 239.5334352408609 L 466.53435578671883 237.0103793662373 L 466.4068306195104 221.22512836968082 L 458.1991926220859 209.6579200729675 L 458.20172623470927 206.20460610769476 L 455.3518343354838 206.20460610769476 L 446.07965677993286 206.0998834538264 L 446.06445510437277 205.52137524491204 L 445.91750557389855 200.45879501385303 L 445.91835011143974 198.66204141609904 L 445.9191946489808 197.55569725016727 L 445.91961691778135 196.0169498682542 L 445.9221505303447 190.82599993241558 L 445.9225727990853 190.12672285656163 L 445.92595094924974 183.5279288561529 L 445.92595094924974 183.2099604756428 L 445.9263732179903 182.57317917708144 L 445.9263732179903 182.07701337746585 L 445.92975136815477 175.59096513747608 L 439.12362340380207 175.63361428282244 L 435.1521856631148 175.57534119314545 L 434.04119654076686 175.56182859266758 L 433.8773562597104 175.5597172488148 L 433.79332477535934 175.51115634077064 L 433.78276805618543 175.50524457807282 L 433.7705222619892 175.49806600903332 L 433.75827646779305 175.4913097087944 L 433.74603067359686 175.48413113978492 L 433.73420714814125 175.47695257077544 L 433.72196135394506 175.4701962705065 L 433.7097155597489 175.46301770149702 L 433.6974697655527 175.4562614012581 L 433.68522397135655 175.44908283224862 L 433.67297817710033 175.4423265319797 L 433.66073238290414 175.4351479629702 L 433.648486588708 175.4283916627313 L 433.63624079451176 175.42163536246235 L 433.62399500031563 175.41445679345287 L 433.61174920611944 175.40770049321395 L 433.59950341192325 175.40052192417446 L 433.5868353489265 175.3937656239355 L 433.5745895547303 175.3870093236966 L 433.5623437605342 175.38025302342766 L 433.55009796633794 175.3730744544182 L 433.5378521721418 175.36631815417928 L 433.5256063779456 175.35956185391035 L 433.5129383149489 175.35238328490084 L 433.5006925207527 175.34562698466192 L 433.4884467265565 175.338870684393 L 433.47620093236037 175.33211438415407 L 433.4635328693636 175.32535808391515 L 433.45128707516744 175.31860178364622 L 433.43904128097125 175.31142321463673 L 433.4263732179745 175.3046669143978 L 433.4141274237783 175.29791061412888 L 433.40188162958214 175.29115431388993 L 433.3892135666454 175.284398013651 L 433.37696777244923 175.27764171338208 L 433.3642997094525 175.27088541314316 L 433.3520539152563 175.26412911290424 L 433.33938585225957 175.2573728126353 L 433.3271400580634 175.2506165123964 L 433.31447199512667 175.24386021212746 L 433.3022262009305 175.23710391188854 L 433.28955813793374 175.23034761164962 L 433.27731234373755 175.2235913113807 L 433.2646442807408 175.2172572799123 L 433.2523984865446 175.21050097964337 L 433.2397304236079 175.20374467940445 L 433.22706236061117 175.19698837916553 L 433.214816566415 175.1902320788966 L 433.20214850347827 175.18389804742824 L 433.1894804404815 175.1771417471593 L 433.17723464628534 175.17038544692036 L 433.1645665832886 175.16362914668144 L 433.1518985203519 175.1572951151831 L 433.1392304573551 175.15053881494416 L 433.12698466315896 175.14378251467525 L 433.1143166002222 175.13744848320687 L 433.10164853722546 175.13069218296795 L 433.08898047428875 175.12435815146955 L 433.07673468009256 175.11760185123063 L 433.06448888583634 175.1112678197323 L 433.05182082289963 175.1049337882639 L 433.03957502870344 175.09817748799497 L 433.0273292345073 175.09184345652662 L 433.0146611715105 175.08550942502825 L 433.0024153773144 175.07875312478933 L 432.99016958311813 175.07241909329093 L 432.97750152012145 175.06608506182258 L 432.96525572592526 175.0597510303242 L 432.95258766298855 175.05341699885582 L 432.9403418687923 175.0466606985869 L 432.9276738057956 175.04032666711856 L 432.91542801159943 175.03399263562017 L 432.9027599486027 175.0276586041518 L 432.8905141544065 175.02132457265344 L 432.8778460914698 175.01499054118506 L 432.86560029727355 175.00865650968672 L 432.85293223427686 175.00232247821833 L 432.8406864400807 174.99598844671996 L 432.82801837708394 174.9896544152216 L 432.81535031414717 174.9833203837532 L 432.80310451995103 174.97698635225487 L 432.79043645695424 174.97065232078648 L 432.7777683940175 174.96431828928812 L 432.76552259982134 174.95798425781976 L 432.7528545368246 174.95165022632136 L 432.7401864738879 174.94573846362357 L 432.72794067963173 174.9394044321252 L 432.71527261669496 174.93307040065685 L 432.7026045536982 174.92673636915845 L 432.6899364907615 174.9204023376601 L 432.6772684277647 174.9144905749623 L 432.6650226335686 174.90815654346392 L 432.6523545706318 174.90182251199553 L 432.6396865076351 174.8954884804972 L 432.62701844469836 174.88957671776936 L 432.6143503817016 174.883242686301 L 432.6016823187649 174.8769086548026 L 432.5890142557681 174.8709968921048 L 432.5763461928314 174.86466286060644 L 432.56367812983467 174.85875109787864 L 432.55101006683793 174.85241706641028 L 432.5383420039012 174.84608303491189 L 432.5256739409044 174.8401712722141 L 432.5130058779677 174.8338372407157 L 432.500337814971 174.8279254779879 L 432.4876697520342 174.82159144651953 L 432.4750016890375 174.81567968379173 L 432.46233362610076 174.8097679210939 L 432.449665563104 174.80343388959554 L 432.4369975001673 174.79752212686773 L 432.4243294371705 174.79118809539938 L 432.4116613742338 174.78527633267157 L 432.39857104249654 174.77936456994374 L 432.38590297949975 174.77303053847538 L 432.37323491656304 174.76711877574758 L 432.3605668535663 174.76120701301977 L 432.34789879056956 174.75529525032192 L 432.33480845889227 174.74896121882358 L 432.32214039589553 174.74304945612576 L 432.3094723328988 174.73713769339795 L 432.2963820012215 174.73122593067012 L 432.28371393822476 174.72531416794232 L 432.271045875228 174.71898013647396 L 432.25795554355074 174.71306837374615 L 432.245287480554 174.70715661104833 L 432.2326194175572 174.70124484832053 L 432.21952908581994 174.69533308559272 L 432.20686102288323 174.68942132286492 L 432.1937706911459 174.6835095601671 L 432.1811026281492 174.67759779743926 L 432.1680122964719 174.67168603471146 L 432.15534423347515 174.66577427201366 L 432.14225390173783 174.65986250928586 L 432.1295858388011 174.65395074655805 L 432.11649550706386 174.64803898386023 L 432.10382744406706 174.6421272211324 L 432.09073711232975 174.63663772717518 L 432.07806904939304 174.63072596444735 L 432.0649787176558 174.62481420174953 L 432.05188838591846 174.61890243902172 L 432.0392203229217 174.61299067629392 L 432.02612999118446 174.6070789135661 L 432.01303965944714 174.60158941963886 L 432.0003715965104 174.59567765691105 L 431.98728126477306 174.58976589418324 L 431.9741909330358 174.58427640022597 L 431.96152287003906 174.57836463752818 L 431.94843253830174 174.57245287480038 L 431.9353422065644 174.5669633808431 L 431.92225187482717 174.5610516181153 L 431.90958381189046 174.55513985541748 L 431.89649348015314 174.54965036146024 L 431.8834031484158 174.54373859873243 L 431.8703128166785 174.53824910477516 L 431.85722248494125 174.53233734207737 L 431.844132153204 174.5268478481201 L 431.8314640902672 174.5209360853923 L 431.8183737585299 174.51544659143502 L 431.8052834267926 174.50953482870722 L 431.7921930950553 174.50404533477996 L 431.77910276331806 174.49855584082272 L 431.76601243158075 174.4926440780949 L 431.75292209984343 174.48715458413767 L 431.7398317681061 174.4816650901804 L 431.72674143636885 174.4757533274826 L 431.7136511046316 174.47026383352534 L 431.7005607728943 174.46477433956807 L 431.68747044115696 174.45886257684026 L 431.67438010941964 174.45337308288302 L 431.6612897776823 174.44788358892578 L 431.64819944594507 174.44239409499852 L 431.63468684546723 174.4364823322707 L 431.6215965137299 174.43099283831344 L 431.60850618199265 174.4255033443562 L 431.59541585025534 174.42001385039896 L 431.582325518518 174.4145243564417 L 431.5692351867807 174.40903486251443 L 431.55572258630286 174.4035453685572 L 431.5426322545656 174.39805587459995 L 431.5295419228283 174.39256638064268 L 431.516451591091 174.3870768866854 L 431.5029389906132 174.3815873927282 L 431.48984865887587 174.37609789877092 L 431.47675832713855 174.37060840484367 L 431.46366799540124 174.36511891088642 L 431.4501553948634 174.35962941692918 L 431.4370650631261 174.3541399229719 L 431.42397473138885 174.34865042901464 L 431.41046213091096 174.3431609350574 L 431.3973717991737 174.3380937098707 L 431.3838591986958 174.33260421591345 L 431.37076886695854 174.32711472198622 L 431.3576785352212 174.32162522802895 L 431.34416593468336 174.31655800284227 L 431.33107560300607 174.311068508885 L 431.3175630024682 174.30557901492773 L 431.3044726707309 174.30051178974105 L 431.29096007025305 174.29502229578378 L 431.27786973851573 174.28953280182654 L 431.2643571380379 174.28446557663983 L 431.25126680630063 174.27897608268262 L 431.23775420576277 174.27348658872535 L 431.2242416052849 174.26841936353867 L 431.2111512735476 174.2629298696114 L 431.19763867300975 174.2578626444247 L 431.1845483413325 174.25237315046746 L 431.17103574079465 174.24730592528076 L 431.15752314031675 174.2418164313235 L 431.1444328085795 174.2367492061368 L 431.13092020804163 174.2316819809501 L 431.1174076075638 174.22619248699286 L 431.1043172758265 174.22112526180615 L 431.09080467534864 174.2156357678489 L 431.07729207481077 174.2105685426622 L 431.06377947433293 174.20550131747552 L 431.0506891425956 174.20001182351825 L 431.0371765421178 174.19494459833157 L 431.0236639415799 174.1898773731449 L 431.0101513411021 174.18481014795816 L 430.99706100936476 174.17932065400095 L 430.9835484088869 174.1742534288142 L 430.97003580834905 174.16918620362753 L 430.9565232078712 174.16411897844085 L 430.9430106073934 174.15905175325415 L 430.9294980068555 174.15398452806744 L 430.9159854063776 174.14891730288076 L 430.9024728058398 174.14385007769408 L 430.8889602053619 174.13878285250735 L 430.87586987362465 174.13329335855013 L 430.8623572731468 174.1282261333634 L 430.84884467260895 174.12315890817672 L 430.83533207213105 174.11851395176058 L 430.8218194716532 174.1134467265739 L 430.80830687111535 174.1083795013872 L 430.7947942706375 174.10331227620048 L 430.7812816701596 174.0982450510138 L 430.7673468008812 174.09317782582713 L 430.75383420034336 174.08811060064042 L 430.7403215998655 174.0830433754537 L 430.7268089993877 174.07839841900758 L 430.7132963988498 174.07333119382088 L 430.699783798372 174.0682639686342 L 430.68627119789414 174.0631967434475 L 430.6727585973563 174.05855178703138 L 430.65924599687844 174.05348456184467 L 430.6453111276 174.04841733665796 L 430.63179852712216 174.04335011147128 L 430.6182859265843 174.03870515505514 L 430.6047733261064 174.03363792986846 L 430.59126072562856 174.02899297345232 L 430.57732585635017 174.0239257482656 L 430.5638132558123 174.0188585230789 L 430.55030065533447 174.01421356663278 L 430.53678805485663 174.00914634144607 L 430.5228531855782 174.00450138502993 L 430.50934058510035 173.99943415984325 L 430.4958279845625 173.9947892034271 L 430.48189311528404 173.99014424701096 L 430.4683805148062 173.98507702182428 L 430.45486791432836 173.98043206540814 L 430.44093304505 173.97536484022146 L 430.4274204445121 173.9707198837753 L 430.4134855752937 173.96607492735916 L 430.3999729747558 173.96100770217248 L 430.386460374278 173.95636274575634 L 430.37252550499954 173.9517177893402 L 430.3590129045217 173.94707283292405 L 430.3450780352433 173.94200560773737 L 430.3315654347655 173.93736065129121 L 430.31763056548704 173.9327156948751 L 430.3041179650092 173.92807073845896 L 430.29018309573075 173.92342578204284 L 430.2766704951929 173.9187808256267 L 430.2627356259745 173.91371360044 L 430.24922302543666 173.90906864399386 L 430.2352881561583 173.90442368757772 L 430.2213532869398 173.89977873116158 L 430.20784068640194 173.89513377474543 L 430.19390581712355 173.8904888183293 L 430.1799709479052 173.88626613065372 L 430.16603607862675 173.88204344300814 L 430.1521012093483 173.87782075536256 L 430.1381663400699 173.873598067687 L 430.12423147085156 173.86895311127086 L 430.1102966015731 173.86473042362528 L 430.09636173229467 173.86050773594968 L 430.0824268630163 173.85628504830413 L 430.0684919937379 173.85206236065852 L 430.0545571245194 173.84783967298296 L 430.04062225524103 173.84361698533738 L 430.02668738596265 173.83939429766178 L 430.01275251668426 173.83517161001623 L 429.9988176474058 173.83094892237062 L 429.9848827781874 173.82672623469506 L 429.970947908909 173.82250354704948 L 429.95701303963057 173.8182808594039 L 429.9430781703521 173.81405817172833 L 429.9287210323332 173.80983548408273 L 429.91478616305477 173.80561279643717 L 429.90085129383635 173.80139010876158 L 429.88691642455797 173.797167421116 L 429.8729815552796 173.79294473347042 L 429.85904668600114 173.78872204579483 L 429.8451118167227 173.7849216269198 L 429.8307546787038 173.78069893924425 L 429.81681980942534 173.77647625159867 L 429.8028849402069 173.7722535639531 L 429.78895007092854 173.76803087627752 L 429.7750152016501 173.7638081886319 L 429.7606580636311 173.76000776972688 L 429.74672319435274 173.75578508208133 L 429.73278832507435 173.75156239443575 L 429.7188534557959 173.74733970676016 L 429.7049185865775 173.74353928788514 L 429.69056144849856 173.73931660020958 L 429.6766265792801 173.73509391256397 L 429.6626917100017 173.73129349368895 L 429.6487568407233 173.7270708060134 L 429.6343997027043 173.7228481183678 L 429.6204648334259 173.71904769946278 L 429.6065299641475 173.7148250118172 L 429.5921728261285 173.71060232417165 L 429.5782379568501 173.70680190526662 L 429.56430308763174 173.702579217621 L 429.5499459495527 173.698778798716 L 429.53601108033433 173.69455611107043 L 429.52207621105595 173.6907556921654 L 429.5081413417775 173.68653300451984 L 429.49378420375854 173.6827325856448 L 429.47984933448015 173.6785098979692 L 429.4654921964611 173.6747094790942 L 429.45155732718274 173.67048679141863 L 429.43762245790435 173.6666863725436 L 429.42326531988533 173.66246368486802 L 429.40933045060694 173.658663265993 L 429.39539558132856 173.65444057834742 L 429.38103844330954 173.6506401594424 L 429.36710357403115 173.64683974053736 L 429.3527464360122 173.6426170528918 L 429.33881156673374 173.6388166340168 L 429.32445442871483 173.63501621511176 L 429.3105195594364 173.63079352746618 L 429.29658469021797 173.62699310856115 L 429.282227552199 173.62319268968614 L 429.26829268292056 173.61897000201054 L 429.25393554490165 173.61516958313553 L 429.2400006756232 173.6113691642305 L 429.22564353760424 173.60756874535548 L 429.21170866832585 173.60334605767991 L 429.19735153030683 173.5995456388049 L 429.18341666102845 173.59574521989987 L 429.1690595230095 173.59194480102485 L 429.15512465373104 173.58814438211982 L 429.1407675157121 173.58392169447424 L 429.1268326464337 173.58012127556924 L 429.1124755084147 173.57632085669422 L 429.09854063913633 173.5725204377892 L 429.0841835011173 173.56872001891418 L 429.0698263630384 173.56491960000915 L 429.05589149381996 173.56111918113413 L 429.04153435574096 173.5573187622291 L 429.0275994865226 173.55351834335409 L 429.0132423484436 173.54971792444906 L 428.9993074792252 173.54591750557404 L 428.98495034114626 173.542117086669 L 428.97059320312724 173.538316667794 L 428.8510911424694 173.50664651036215 L 427.7489696642132 171.81039287886097 L 426.2921424227683 169.76576751569945 L 425.72250185797566 168.89167117087456 L 424.01611377610107 166.27529389906763 L 418.51521856627295 157.84427572459805 L 418.0756367812521 157.15386629280582 L 416.591362070111 154.82209816902494 L 415.1619822984825 152.57689514221843 L 414.76209377741407 151.94855921897823 L 415.2046314437988 151.44859300045766 L 415.49135193567764 151.14751537058987 L 415.6851732990537 150.9351141814592 L 415.8317005607273 150.78225288831726 L 416.48368353484875 150.03863759206473 L 417.63985541513637 148.80181237753055 L 418.02285318556244 148.39221167488938 L 418.424430781653 147.96276434024196 L 418.8234747651802 147.5358506181879 L 419.22251874870744 147.1093591649044 L 420.42218431185256 145.82566211740829 L 420.8178501452153 145.39917066415478 L 420.819116951557 145.39748158907253 L 423.089656104297 145.42028410241267 L 424.34886156340076 145.43379670292052 L 425.84369299371576 145.44984291602174 L 425.8724072697537 144.67455746233736 L 425.87536315111765 144.5968600094547 L 313.8833524761667 144.7526771839606 L 313.87912978852114 145.10864975340093 L 310.93211607320734 144.6521772177378 L 302.645091547878 144.41106175256922 L 302.6315789473402 144.89878217686362 L 302.6163772717801 145.43421897169108 L 302.6100432403117 145.6609772988407 L 302.6007533274794 146.0021704614615 L 302.59019660830546 146.37292243766137 L 302.5851293831188 146.56040976959906 L 302.5800621579321 146.7508529829007 L 302.56950543881817 147.12878352814005 L 302.55768191336256 147.55063002500742 L 302.55092561309357 147.791745490176 L 302.53487940005243 148.367720086467 L 302.524744949679 148.72580399973015 L 302.5179886494101 148.9681862711804 L 302.5146104993056 149.09064421323217 L 302.5044760488722 149.4588625768387 L 302.49434159849886 149.81779102764295 L 302.4858962232077 150.1323812580186 L 302.47618404163484 150.47272988309828 L 302.4647827849198 150.88866461723785 L 302.45380379700526 151.27504053779836 L 302.44409161543246 151.63439125734314 L 302.43395716505904 151.9840297952851 L 302.4238227146857 152.35309269643273 L 302.42002229578065 152.49328592660797 L 302.4086210391256 152.9054202418725 L 302.3925748260244 153.48097256942296 L 302.38708533203715 153.67986115801574 L 302.3811735693693 153.8829724342841 L 302.3714613877365 154.24105634754721 L 302.3609046685625 154.61054151746544 L 302.3545706370942 154.8385666508967 L 302.3490811431669 155.03661070197836 L 302.3229004796923 155.9808036619059 L 302.2908080534899 157.13275285451792 L 302.2591378960881 158.26569995269483 L 302.23717992025905 159.0557648131687 L 303.17672792380046 159.07054421998828 L 303.6952739679856 159.0781450577683 L 303.96130329031706 159.08236774541388 L 304.2019964867151 159.08574589554834 L 304.7049185865396 159.0933467333284 L 305.21164110532914 159.10094757110843 L 306.1165630700448 159.1144601716163 L 306.21832984257924 159.1161492466685 L 306.81415107084644 159.12501689076024 L 307.18279170325354 159.13008411594694 L 307.2997601513481 159.13219545976972 L 307.83393013983385 159.13979629754976 L 308.32460644552214 159.14697486655925 L 308.84864198363454 159.15457570433927 L 309.82534963850503 159.16893284235826 L 310.4114586851994 159.1773782176794 L 310.7817883926887 159.1824454428661 L 310.91184717246057 159.18455678668892 L 311.77918721704657 159.19680258091506 L 312.06970812783044 159.20102526856067 L 312.6178129855946 159.20862610634072 L 313.1228464293019 159.21580467535017 L 313.6135227349302 159.22298324435968 L 314.50957705561416 159.2356513073264 L 315.68095061140184 159.25211978919816 L 315.7299337882465 159.25254205796872 L 317.64576717785786 159.27998952772498 L 318.24961151273567 159.28843490304615 L 320.68103506516826 159.32263867307134 L 321.02053915273683 159.32770589825805 L 322.6036247550485 159.3500861428276 L 322.54492939663095 160.9661087088528 L 322.4883453820362 162.20588980475088 L 322.4570974933749 163.10490000673872 L 322.4110701979541 164.2564269306102 L 322.3646206337327 165.42062191741837 L 322.3181710695113 166.57341564757152 L 322.27045469900827 167.7722366732055 L 322.2202047158819 169.0318644010498 L 322.1496858320087 170.79314742246692 L 322.10323626778734 172.01139281127652 L 322.0466522531926 173.73424937502287 L 322.03060604009136 174.53993817985742 L 342.4654584149312 172.72249341261607 L 343.6347206269561 172.57934430104694 L 350.50630024999526 171.61446017160208 L 354.40806364435053 171.43372913990328 L 362.2229916897161 171.47891189784298 L 369.75331058708565 171.52831734342826 L 379.8780487804631 171.53971860008332 L 401.7013208566974 170.70151510033583 L 403.8396898857827 175.44443787580246 L 392.6858827105856 174.95418383891473 L 392.68123775419946 175.09522160663107 L 392.5541348557315 175.08846530639215 L 392.47685967164944 176.48828626444168 L 392.39367272477955 176.6284794946169 L 391.9604249712871 176.9667167758738 L 391.45201337747534 177.11619991891132 L 391.00145260454 177.18334065265003 L 385.50900277006303 177.13097932570085 L 383.59612526181564 176.77669583134275 L 381.0523782176747 176.15553847711203 L 380.4337544760373 176.00098810891785 L 380.3226977906706 175.85319404093255 L 380.30876292139214 174.94616073236412 L 369.0819032497585 174.7768309573504 L 369.0933045064136 177.37673974731555 L 363.71571177620837 177.39025234779342 L 363.74273697722407 174.4546398891947 L 356.5455881358948 174.3815873927282 L 349.2335821903537 174.69786669818606 L 343.06170191199897 175.2535723937603 L 343.043544355075 175.33718160934075 L 343.0426998175339 175.360828660222 L 343.0418552800528 175.3870093236966 L 343.05241199916674 175.4123454496301 L 343.06127964325844 175.43641476925188 L 343.0659245996446 175.45246098235307 L 343.0688804810085 175.47230761432928 L 343.0726808999135 175.51073407203006 L 343.076059050018 175.5457823795664 L 343.08028173772357 175.5698516992182 L 343.08028173772357 175.5858979122894 L 343.0785926626413 175.6057445442956 L 343.07014728735015 175.6247466387307 L 343.06761367472683 175.63065840145853 L 343.05790149315396 175.6479714208414 L 343.0515674616256 175.6673957840771 L 343.03889939868884 175.70202182284282 L 343.03721032360664 175.71806803594401 L 343.0355212485244 175.74551550570027 L 343.035943517325 175.78478650091216 L 343.03974393623 175.82828018376964 L 343.03805486114777 175.84348185932973 L 343.04016620497055 175.87599655427266 L 343.02834267951494 175.89753226133115 L 343.0148300790371 175.91653435576626 L 343.0055401662048 175.93680325654304 L 343.0004729410181 175.95707215728982 L 342.99793932839475 175.97945240185936 L 342.99456117829027 176.00689987161564 L 342.9924498344675 176.0356141476836 L 342.99160529692637 176.06897338016768 L 342.9865380717397 176.1150006756185 L 342.981470846553 176.1361141139064 L 342.977670427648 176.1648283899743 L 342.97555908382515 176.22985777986023 L 342.97006958989795 176.3345804337586 L 342.9713363961796 176.3856749543961 L 342.97091412737905 176.47097324505881 L 342.96880278355627 176.52586818457132 L 342.9692250523568 176.55584926692094 L 342.97302547126185 176.57316228633383 L 342.9937166407492 176.60018748731954 L 343.01905276668265 176.61876731301408 L 343.03129856087884 176.6335467198036 L 343.0384771298883 176.64748158908202 L 343.04607796769835 176.6728177150155 L 343.04650023643893 176.68252989661832 L 343.0452334301572 176.71039963514517 L 343.0418552800528 176.7289794608397 L 343.03425444224274 176.74587021145203 L 343.0232754543282 176.76191642455322 L 343.01398554149597 176.7792294439361 L 343.0004729410181 176.7893638943395 L 342.98400445911636 176.800342882224 L 342.9713363961796 176.81596682655464 L 342.97006958989795 176.84088068371756 L 342.97978177147075 176.8704394973266 L 342.9894939531036 176.89281974189618 L 343.0063847037459 176.94095838116976 L 343.0144078102965 176.97516215119498 L 343.02200864804655 177.0271012093736 L 343.03003175459713 177.07481757987665 L 343.0296094858566 177.11071042495405 L 343.0228531855877 177.1436473886976 L 343.02243091678713 177.17193939599497 L 343.02707587323323 177.25428180526376 L 343.0198973042238 177.28637423146617 L 343.0148300790371 177.30242044456736 L 343.0148300790371 177.32184480777303 L 343.0169414228599 177.35773765285046 L 343.0266536044927 177.39067461656396 L 343.02792041077436 177.41558847375688 L 343.0296094858566 177.42614519290083 L 343.021586379306 177.78845179377953 L 343.0000506722175 178.75206911694272 L 342.99793932839475 178.83821194514655 L 342.995827984572 178.93533376123486 L 342.98907168430304 179.23852273495547 L 342.98189311529353 179.23641139110268 L 342.9624687520879 179.2381004661849 L 342.9531788392556 179.2473903790172 L 342.9468448077872 179.27061516112786 L 342.9498006891512 179.32255421930648 L 342.95697925816063 179.4116529288442 L 342.9620464833473 179.46697013715732 L 342.9561347206195 179.55564657792445 L 342.959512870724 179.63841125599384 L 342.95697925816063 179.7367998783938 L 342.9510674954328 179.81576413755815 L 342.94853388280944 179.87403722720515 L 342.9531788392556 179.95342375514002 L 342.9561347206195 180.0180308762854 L 342.96120194580624 180.07250354705738 L 342.9692250523568 180.1214867238721 L 342.9498006891512 180.9896713059992 L 342.94895615161005 181.03949902032502 L 342.9345990135911 181.6771248564275 L 342.9320654009677 181.78100297275475 L 342.9202418755121 182.31601749881165 L 342.91770826294874 182.43720863455178 L 342.9058847374931 182.96039963515304 L 342.9020843185881 182.9637777852875 L 342.8911053307336 182.97813492330647 L 342.8839267616641 182.99544794268934 L 342.87674819265465 183.01276096210222 L 342.87463684883187 183.0402084318585 L 342.8759036551135 183.09214749003712 L 342.87294777380964 183.14619789203851 L 342.8691473549046 183.1766012431587 L 342.8742145800913 183.19518106885326 L 342.8864603742875 183.21249408823613 L 342.8999729747653 183.22600668874398 L 342.88857171811026 183.73948550774242 L 342.8835044929235 184.09461353961166 L 342.90419566241087 184.16344334840258 L 342.95486791433785 184.32728362948905 L 343.0819708127458 184.51772684276068 L 343.1077292074798 184.5759999324377 L 343.1693804472613 184.69339064927277 L 343.46961353961797 185.29976859671396 L 343.56420174308295 185.42940510774525 L 343.6342983582156 185.52863826768635 L 343.6900378352692 185.60126849535231 L 343.72719748665827 185.64814032834425 L 343.7896932639809 185.69965711775234 L 343.9307310316672 185.78791128977895 L 344.0873927437142 185.89094486859506 L 344.4982602526971 186.24733970677596 L 344.86521181002195 186.57079758124334 L 345.0117390716955 186.70676812377297 L 345.18782514694817 186.86469664210165 L 345.5649111546464 187.16999695964503 L 345.8334740896012 187.43433720692428 L 345.9457975812496 187.53694851699987 L 346.00913789605335 187.63238125800595 L 346.0678332544709 187.70965644211805 L 346.14510843861297 187.85618370379166 L 346.2181609350495 187.96977400175174 L 346.30599283830554 188.07280758056788 L 346.374400378356 188.14628234577495 L 346.4474528747925 188.237914667906 L 346.5745557732604 188.34812681576165 L 346.7683771366365 188.48620870211408 L 347.0322951152052 188.71761198567984 L 347.1961353962617 188.87216235387405 L 347.3726437402549 189.07062867372628 L 347.48074454425773 189.18041855278133 L 347.5943348422478 189.27416221876518 L 347.81138098773454 189.39619789201643 L 347.99844605090175 189.50809911492428 L 348.4173366664352 189.80579859468762 L 348.4494290926376 189.82268934529992 L 348.47307614348887 189.83662421457834 L 348.423248429163 189.8450695898995 L 342.75386798189226 189.7509036551451 L 340.6264779406614 189.74119147354224 L 339.0176339436157 189.73823559217834 L 338.35467198157977 189.7369687858967 L 337.0418383893052 189.7407692047717 L 335.09982433615926 189.73401290453276 L 334.93809539892555 189.7335906357622 L 333.5454530099455 189.73105702316886 L 332.5096277278569 189.72852341057552 L 331.7499662184732 189.73316836699166 L 329.39708465640445 189.72430072292994 L 329.2176204310473 189.7234561853888 L 326.82631241130775 189.71796669143157 L 326.4606276602646 189.71712215389044 L 325.2702520100118 189.713744003786 L 324.08029862843955 189.71036585365152 L 322.51663738933354 189.70234274710091 L 283.1079825687444 189.5017650834259 L 284.2282616039245 191.2541804607813 L 284.9744105127704 192.3292767380518 L 285.7906560367489 193.44364401053417 L 286.5638301466104 194.49762684951676 L 287.4201912032819 195.6314184852348 L 287.90284440241965 196.26482163366168 L 288.22292412672255 196.68413451793572 L 288.8352138368915 197.46322039049508 L 289.7287345449521 198.59490068239035 L 290.5390683062028 199.60876798864993 L 291.1412235659384 200.3435156408407 L 291.8616140801102 201.20789980406278 L 292.7196642118639 202.23485744205968 L 293.64865549623136 203.31924363219244 L 294.331041821473 204.11015303017743 L 294.68236943449716 204.5379112897726 L 294.4670123640326 204.5379112897726 L 293.7690020944304 204.53833355854317 L 293.32266400920065 204.5362222147204 L 290.697419093272 204.52439868926476 L 288.3639618944689 204.51426423889137 L 287.216657658273 204.5138419701208 L 285.5807884602116 204.5058188635702 L 285.0858894669377 204.50328525097686 L 283.7029592594705 204.49610668196738 L 283.6898689277932 204.77607087357728 L 280.8551787041278 204.7688923045678 L 280.8632018106784 204.15111310047155 L 265.187740693207 204.1076194175841 L 263.8770184446952 204.08481690424395 L 261.4607965677627 204.0734156475889 L 239.51717789338943 203.9116867103552 L 239.575873251807 202.46583845685487 L 239.71648875075277 199.0167471792277 L 239.55053712587352 199.01548037294603 L 239.1844301060898 199.01252449158213 L 236.6769981757968 198.99225559083533 L 235.16612053238055 198.9795875278686 L 235.22312681577586 197.01265961758978 L 233.89846969798563 196.99450206066578 L 230.6106850888216 196.9632541720045 L 230.66642456587525 194.92454057157082 L 230.8226640091817 190.643157556924 L 230.9079622998144 187.2194024052303 L 230.9759475711242 184.70268056210506 L 231.00592865344382 183.58324606443597 L 231.08024795622202 181.48963752448978 L 231.24957773120576 181.49005979326034 L 233.79121343152394 181.50103878114484 L 236.929937166391 181.52806398216055 L 240.09526383353324 181.5749358151525 L 240.04163570030238 173.81490270926943 L 243.93537598810704 173.8060350651777 L 246.5703330856085 173.79970103370937 L 241.16993784203316 165.33996858320182 L 240.21941085063727 163.74294811161172 L 240.7037531247972 160.82042598472032 L 240.5563813255825 160.75286298221104 L 238.01432335652376 159.5861343828095 L 237.31420174309872 158.45867677858982 L 232.85546584688757 151.27715188162114 L 229.5841497196253 146.00850449292986 L 227.90140868860195 146.00090365514984 L 235.59556786702797 158.4506536720392 L 234.56143166002158 158.19349199376944 L 227.34612526182826 156.3975829335866 L 221.60327004932046 155.7861377609587 L 219.98260252687913 155.6476336058357 L 218.51817444768423 154.60927471115374 L 217.6765927977723 154.5915394230003 L 217.6432335652882 155.5188416323155 L 217.41647523816857 155.50786264440103 L 216.38064995608 155.482104249697 L 200.74741571512436 155.3727366394125 L 198.52670427671023 155.40694040943768 L 180.04906763057642 155.34275555706287 L 180.0511789743992 155.18651611375643 L 178.47569420983757 155.17638166338304 L 172.04200729679695 155.2409887845284 L 171.55850956017815 155.3486673197607 L 170.66498885211757 155.33853286938728 L 170.67005607730425 155.28659381123867 L 170.39895952978608 155.27645936083528 L 170.3867137355299 155.17427031956026 L 169.64436524558906 155.16498040672798 L 169.6439429768485 155.26885852305523 L 167.10779677045758 155.26548037295078 L 167.107374501717 155.32797615024333 L 165.0711945139067 155.33726606310563 L 165.06781636374222 155.45719039253407 L 157.84026417135274 155.51377440712884 L 157.84195324637494 155.3714698331008 L 137.38514289576614 155.38709377743146 L 137.00763461926735 155.49308323761147 L 127.50954327407787 155.4394551043806 L 124.53085940136224 155.41116309708326 L 116.59685156407934 155.3182639686405 L 111.60985744205018 155.2933501114776 L 109.32284980746846 155.16962536314412 L 108.30940476994942 155.13246571178502 L 106.33318694683834 155.02098675764773 L 103.59815215188462 154.8837494088064 L 103.55592527530882 154.87319268969247 L 103.47484967232171 154.83983345720839 L 102.22789000741415 154.31495338152487 L 101.3111445172429 153.9159093979976 L 99.49116613743823 153.1473802445822 L 96.42465036146655 151.81047733259578 L 85.07448821027 146.81757144786886 L 84.59985811768288 146.60854840887268 L 84.69529085874899 145.25179886494004 L 83.08391324907993 144.19105972568855 L 83.18145733396881 142.61093000471078 L 81.81921829604892 142.60290689819016 L 73.23069387202122 142.5877052226301 L 64.95253699072359 142.6409110870904 L 64.95380379706529 143.19534997635293 L 64.95127018444194 144.44315417877164 L 64.95295925952416 145.35736605634955 L 64.95253699072359 145.68926930613807 L 64.95211472198304 146.45019762177344 L 64.95380379706529 147.01308188635716 L 60.227349503440394 147.00632558611824 L 59.02599486521308 147.00970373622272 L 57.54678737925866 147.01139281130494 L 56.04013242348796 147.00421424226545 L 54.612863995682176 147.00336970475433 L 54.568525775283575 147.00336970475433 L 54.50054050403375 147.00336970475433 L 54.49589554758762 145.66013276129956 L 54.56599216272025 145.66055503007013 L 55.201928923740496 145.66435544894517 L 56.02535301666845 145.6647777177157 L 56.824707790004595 145.66562225525684 L 57.62068441323629 145.67026721167298 L 57.922184311874645 145.6719562867252 L 58.94703060604874 145.67786804945302 L 60.223971353275914 145.67744578068243 L 60.22228227825369 144.80588304845088 L 60.22439362207649 144.1082950476192 L 60.22143774071259 143.2198415647453 L 60.251841091832745 142.66160225660772 L 59.87602189041618 142.65864637524382 L 50.886764407839024 142.66962536315833 L 50.52994730088756 142.66835855684667 L 50.539237213719844 143.18141510707454 L 49.444294304473146 143.1615684750983 L 49.444294304473146 143.16199074386887 L 49.469630430406596 143.4077511654536 L 47.97817715019602 143.4107070468175 L 43.69172691033248 143.41999695964978 L 40.968937909634946 143.19028275116625 L 38.49908789947165 143.20210627659188 L 36.525825957724436 143.17465880683562 L 33.770522262023945 143.15903486250497 L 33.7481420174544 143.15903486250497 L 31.060823593003732 143.13834369298763 L 30.82393081551072 143.13623234916486 L 28.878116343519793 143.1214529423753 L 28.82237686640616 143.12103067360476 L 28.64966894131797 143.11976386729307 L 28.219799337869972 143.11638571718862 L 27.365127356280738 143.1096294169197 L 27.26673873385073 143.10878487940857 L 25.478430511447925 143.09527227890072 L 25.115279373028102 143.09231639753682 L 24.528748057593134 143.08809370989124 L 24.433315316527057 143.0872491723501 L 21.096125261837756 143.0614907776461 L 21.110060131056144 142.48213803122061 L 20.764222012019218 142.4652472805783 L 16.940156070546607 142.45131241132987 L 13.177319100054916 142.3968397405579 L 12.931136409729646 142.39303932165288 L 12.899466252267786 146.4810232416642 L 12.910867508982875 148.07002060670368 L 12.910022971441748 148.12111512734117 L 12.877508276498787 150.05848422404097 L 12.805722586343933 154.29721809337144 L 12.751672184312525 157.49674853050885 L 12.750405378030848 157.55797750151976 L 12.695088169717764 160.8166255658453 L 12.683264644262124 161.46860853996674 L 12.646527261673583 163.45073812580563 L 12.58572055943327 167.4449783798331 L 12.508445375351158 172.5527413688318 L 12.507600837810031 172.62748294035055 L 12.503378150104453 173.09324538881594 L 12.5 173.55858556854076 L 12.72084656445179 173.55900783731133 L 14.018056212425734 173.56154144990467 L 13.980896561036644 177.3041095196196 L 15.5382237686743 177.30664313221294 L 15.574961151262812 173.56407506249803 L 17.132288358900468 173.56660867509137 L 18.689193297737546 173.56956455645528 L 18.652033646408455 177.31213262617018 L 20.209360853986084 177.31466623876355 L 20.246098236634623 173.57209816904862 L 21.80342544421228 173.57505405038253 L 23.360330383109357 173.57758766297587 L 24.917235321946436 173.58012127556924 L 26.474562529584063 173.58307715693314 L 28.03146746842114 173.58561076952648 L 29.588794676058797 173.58856665089039 L 30.11536382679452 173.58941118843148 L 31.9463211945137 173.53282717383672 L 32.44966556313875 173.5172032295061 L 33.19623674078517 173.49693432875932 L 33.19665900952572 173.72622626850227 L 34.61548206204037 173.63797209647566 L 35.108691980292036 173.6164363894172 L 35.47479900007576 173.60081244508655 L 36.43377136682281 173.58096581311034 L 38.115245591504475 173.57885446928753 L 38.55905006417086 173.57800993174644 L 39.65357070467701 173.57632085669422 L 48.445628673773626 173.57463178164198 L 48.954884805066484 173.57209816904862 L 49.46371866767879 173.57167590027808 L 49.97297479903165 173.5691422876847 L 50.482230930324505 173.5704090939664 L 50.95432741028827 173.56998682519583 L 51.44078102833103 173.56956455645528 L 51.93061279641822 173.5691422876847 L 52.43184582122046 173.5691422876847 L 52.93307884602274 173.56872001891418 L 53.433889602084435 173.5674532126025 L 53.933433551804455 173.57083136273695 L 53.94061212081394 173.57083136273695 L 54.494628741305945 173.56956455645528 L 54.4540909398124 174.72531416794232 L 54.280960745923636 174.80807884601168 L 54.19777379905372 174.84777210999414 L 53.91612053242159 175.02428045401734 L 53.794507127880905 175.10028883181775 L 53.340568204841134 175.4110786433184 L 52.83849064255776 175.75142726842807 L 52.47491723533739 176.00605533410453 L 51.72539017632707 176.53304675358083 L 51.194598337945735 176.92153401796412 L 50.94714884127879 177.10775454362016 L 50.63466995472592 177.33873555841535 L 50.268140666201646 177.62461151272305 L 49.91554624689579 177.90119755419852 L 49.571819471681636 178.17482771434004 L 48.91476927237349 178.70435274643967 L 48.59046686036501 178.96869299371895 L 48.257719073065346 179.25499121679724 L 47.671610026370956 179.75157928518337 L 47.082122829572086 180.27941524220074 L 46.45505371258355 180.85707891357401 L 45.87654550369919 181.40349469628597 L 45.30648267010599 181.95033274776847 L 44.73304168640834 182.53264137558784 L 44.17057969056518 183.11452773460667 L 43.630497939351585 183.69894770621886 L 43.087460306714064 184.30448111611892 L 42.561735693519466 184.89734646308227 L 42.06050266871719 185.50499121680514 L 41.56813728800665 186.11474731435078 L 41.08928450783398 186.72239206810363 L 40.616343490329086 187.34270488479322 L 40.170849942580475 187.97146307680399 L 39.719866900904606 188.63146915747603 L 39.322934261200146 189.2230676981277 L 38.925579352755136 189.83324606444387 L 38.53371393823738 190.46876055672357 L 38.15536112425747 191.11229815552383 L 37.77700831027758 191.76639247346807 L 37.415546246879984 192.42090906018285 L 37.07393081548864 193.06909161542927 L 36.74625025337568 193.72571954596685 L 36.432082291740585 194.38445882035722 L 36.18801094523809 194.91398385242687 L 35.89326734680867 195.6081937031241 L 35.707046821182615 196.05157590701992 L 39.462282953864275 196.0511536382494 L 39.7840517532494 196.0511536382494 L 40.95964799674269 196.04904229442658 L 41.07492736975499 196.04946456319715 L 41.120954665235814 196.0498868319677 L 41.807985946923566 196.05242044456105 L 43.303239645979176 196.04693095060378 L 43.54815553002277 196.04608641306268 L 44.54133166679503 196.04439733801044 L 44.53922032297223 196.17192250521896 L 44.532041753962744 196.598836227273 L 44.526974528776066 197.02617221809763 L 44.52190730358936 197.44886325247612 L 44.51852915342491 197.8787328558941 L 44.5096615093932 198.3140919532393 L 44.50586109048817 198.74945105058453 L 44.50628335922872 199.18523241673032 L 44.499104790219235 199.6231251266689 L 44.49192622120975 200.061440105378 L 44.4885480711053 200.33380345920787 L 44.486436727282495 200.49806600903491 L 44.47545773936798 200.93342510641014 L 44.47207958920353 201.36202790351643 L 44.47292412674463 201.7766958313443 L 44.46363421391237 202.41558847375848 L 44.46067833254847 202.61025437470568 L 44.46405648265292 203.1097983244257 L 43.57391392475682 203.10810924937346 L 42.66181339097167 203.11022059319626 L 41.747179244623226 203.11064286196682 L 40.83254509833475 203.1068424430618 L 39.909465576635114 203.09628572391784 L 38.983430173631575 203.07939497330554 L 38.74822647122082 203.07390547934827 L 37.52406931962338 203.01014289574402 L 37.46115127356023 203.35218059590596 L 37.13938247417511 205.0902388352124 L 37.08068711575754 205.6248310924987 L 37.02494763870391 206.13113134245768 L 36.988632524855916 206.45965644211174 L 36.90797919060935 207.66396696167294 L 36.90375650296377 207.8822799135014 L 36.87715357068862 209.13135092223177 L 36.87208634550194 209.36824369975477 L 36.85561786366017 210.2499408823597 L 36.83450442537227 211.3600854671965 L 36.801145192888214 213.1226352948953 L 36.763563272758546 215.09631950544306 L 36.75047294102126 215.8002415377131 L 36.70909060198659 217.99097189377764 L 36.69262212014482 218.85324471317693 L 36.690088507521466 218.99090433078882 L 36.681643132230306 219.4347088034552 L 36.65588473749628 220.78934700356504 L 36.633082224186154 222.00168062967686 L 36.612391054638806 223.09451219510078 L 36.59381122897426 224.06108539962787 L 36.57607594085084 225.00865650968984 L 36.55749611512627 225.9735406391347 L 36.51949192625608 227.99789710154943 L 36.51231335718657 228.37793899061157 L 36.4016789406204 234.20567022498153 L 36.419414228803845 234.7520860076935 L 36.60183433552487 240.44131308694045 L 36.62294777381277 242.4002178906687 L 36.624636848894994 242.44202249847393 L 32.97919059523841 242.4470897236606 L 33.23128504829148 252.1347797446106 L 34.1383183568899 252.14069150730842 L 34.48880143231298 253.17736132693813 L 34.745118573071665 253.94969089925857 L 35.10235794882365 255.02352037024738 L 35.44481791769613 256.02852003241526 L 35.805013174812046 257.1703347746539 L 36.18843321397864 258.2690781028056 L 36.579454090955295 259.28252314032466 L 37.00805688806159 260.34706269845117 L 37.3382710627979 261.1016569826182 L 37.4527058982691 261.36346361730415 L 37.87455239510646 262.2945662455244 L 38.409989189933924 263.4080889804656 L 39.00961083710618 264.58706337409336 L 39.4369468279308 265.28676271871785 L 43.51352949125703 265.3192774136608 L 69.06416796161614 265.46242652522994 L 70.53873049118442 265.4636933315116 L 70.2891696506947 264.0714732112421 L 70.15319910819505 263.17584115935875 L 68.60642861967136 263.16908485911983 L 64.73633538277795 263.14839368960247 L 64.56742787647477 262.01671339773725 L 64.54293628808242 261.85329538542135 L 64.47030606038643 261.3676863049797 L 64.36262752518417 260.6464512532668 L 66.54364569964588 260.6460289845262 L 69.7642895750412 260.6257600837794 L 69.68025809069016 260.0649871630185 L 69.50374974663694 258.94132997770384 L 70.5670224984818 258.85392034321836 L 71.99471319508817 258.7365296263533 L 73.41902574153008 258.6271620160687 L 73.47265387476091 258.6229393284232 L 73.76401932302588 258.5997145463125 L 73.81300249981061 258.5967586649486 L 73.8290487129118 258.2585213836917 L 73.83960543208576 257.4106057023114 L 73.8531180325636 256.2586565096693 L 73.77668738596262 255.47365887438215 L 73.79315586786439 254.3951844469772 L 73.80582393080113 252.96327106275527 Z" fill="black" />
</svg>