<svg xmlns="http://www.w3.org/2000/svg" viewBox="0 0 500 500" preserveAspectRatio="xMidYMid meet">
  <path d="M 60.46262478683309 19.025900900779618 L 59.21353786210105 19.0605977597954 L 57.67531044559834 19.106860238537877 L 47.31251521780223 18.956507182748084 L 47.3009495981577 21.743821524147194 L 38.45325054773963 21.905740199581516 L 38.499513026482106 24.25356099333797 L 44.953128804401246 24.1147735572749 L 44.90686632565877 27.44567202328176 L 44.99939128314372 30.78813610901537 L 38.74239103967466 30.84596420732018 L 38.04845385919492 37.80846725091351 L 34.960433406380616 37.98195154607453 L 32.959581202781834 37.9588203067033 L 31.459520331073207 39.302745312799885 L 31.178475773086575 39.55487582167518 L 31.222425127702905 40.67558436808997 L 31.236303871309218 41.02370952022855 L 21.324567810964652 41.2665875334211 L 21.659970781477824 45.86970416353125 L 24.15814463110624 45.88126978317578 L 28.645605064524545 45.777179206128494 L 29.18918918913232 45.76561358648394 L 29.18918918913232 48.65701850493036 L 17.775079133117345 50.0726503529381 L 18.411188215210075 58.493578037421116 L 30.918249330427216 58.32703311414542 L 31.12180423659828 63.43672388596798 L 18.745434623824508 63.26902240071141 L 16.756148039870283 60.79513635251729 L 13.332724616378442 71.44128926217962 L 13.043584124607776 76.43763696118992 L 18.15558802030992 76.25258704638438 L 19.867299732138008 76.16006208906379 L 32.49695641585015 76.14849646933706 L 45.728025322557045 75.77839663980814 L 45.77428780129952 79.61818237148921 L 60.670805941092055 79.12086072554172 L 60.74019965912359 80.93666301425279 L 60.774896518057176 81.90817506685866 L 60.786462137701704 82.37079985379037 L 73.1038470903541 82.40549671288832 L 73.24263452641716 83.24978694899346 L 73.68212807389546 85.82892013629797 L 60.92524957376477 85.92144509370073 L 46.60701241784233 86.23371682484265 L 46.68797175551839 92.52541392732749 L 44.953128804401246 92.56011078634324 L 44.89530070601424 95.34742512774235 L 43.47272948612118 95.35899074738688 L 43.27611395167111 97.26731799358288 L 43.16045775506146 101.22275992203797 L 43.021670318834 103.28144022394156 L 45.346359873301424 103.33926832232856 L 45.473581689719964 104.16042731914467 L 45.462016070075435 104.29921475520774 L 45.242269296336275 110.81065863151389 L 45.369491112754844 113.3897918187362 L 45.30009739455895 118.60588629165002 L 39.32067202338038 118.53649257361849 L 39.147187728219365 122.57289383974963 L 36.81093255410744 122.45723764297561 L 35.5618456293754 122.37627830529955 L 34.15084002912687 122.35314706592831 L 22.053201850377974 122.46880326262014 L 22.157292427507457 123.82198076448167 L 22.36547358160209 132.80846725096282 L 16.66362308254969 132.7969016313183 L 17.022157292351892 142.56985025559976 L 29.247017287519327 142.33853786213393 L 32.323472120689104 142.30384100311815 L 32.658875091202276 142.30384100311815 L 32.658875091202276 146.80286705618101 L 32.323472120689104 146.81443267582551 L 29.466764061258488 146.86069515456802 L 28.853786218619177 146.87226077421252 L 24.805819332843498 146.91852325295503 L 23.568298027755986 146.93008887259953 L 12.5 147.0573106890181 L 12.557828098222643 151.16310567318078 L 12.661918675352126 151.7413866568865 L 12.858534209802201 161.75721329427836 L 33.3875091306156 161.35241660573365 L 35.36523009492532 161.2251947893151 L 37.736182127970835 161.2714572680576 L 37.70148526903725 156.89965303133113 L 49.96104212313827 156.50642196243095 L 48.55003652288974 165.238464816075 L 49.128317506595465 177.97221207691663 L 35.89724859988854 178.29604942778525 L 34.335889943932415 178.34231190644556 L 34.42841490125301 181.33780740193927 L 34.61346481605858 186.93556732402655 L 36.17482347201471 186.88930484536624 L 49.375821767711585 186.2878926222893 L 66.5738982225181 185.9756208910652 L 75.88075237400739 185.81370221571305 L 88.4086316045518 185.13017409297913 L 118.3647431213877 184.90001826141201 L 118.3601168736285 190.81004991472338 L 119.05405405394387 204.07581568052822 L 121.06994156321204 204.0781288044078 L 122.94010226436743 204.13364377883306 L 123.0788897004305 205.9610116872708 L 123.17141465791545 207.5108047235824 L 135.91672753823724 207.17540175306925 L 140.5892378864611 207.23322985145626 L 141.54918431942247 207.2447954711008 L 156.20282444602242 207.094442415311 L 162.55234964697644 206.90939250058764 L 164.76138300466982 206.86313002184517 L 186.64353542734472 206.4236364742847 L 213.3832481128847 205.93788044798174 L 231.6337959581375 205.6950024347892 L 231.58753347939503 206.7243425857821 L 232.2352081811323 224.8014061357917 L 232.45495495487145 245.34541636227448 L 223.3447163379966 245.4483503773409 L 223.4337716094567 249.89880082778166 L 215.19673727788052 250.0098307767143 L 214.32931580223976 252.28478816649655 L 213.08022887750772 255.35777331380584 L 212.26832237645655 259.2472912100899 L 212.2428780132057 262.7065680544962 L 213.12186510832663 266.24796079855946 L 214.45422449469652 269.697985147283 L 219.0931945458855 277.0548758217574 L 221.47802532253732 276.0683284635643 L 223.96232042855945 279.3506513269491 L 220.06008035056783 280.89813123929895 L 221.80417579736775 283.4101838324515 L 231.7991843195145 279.6525140004274 L 232.4908083758681 292.48572559039275 L 233.9018139761166 312.72902970537814 L 234.8455685415099 327.1247565132805 L 235.01327002684866 336.0453189675906 L 235.3116630143021 353.53716216217356 L 235.64012661309428 362.9249756513389 L 233.0679327976751 362.95273313855154 L 222.1534575114872 363.359842951058 L 219.36845629404988 363.4639335281053 L 197.72339907474526 363.66286218651715 L 197.8575602628848 372.8297723398803 L 101.8536644751756 374.8005539323047 L 101.79930606281343 373.23919527634854 L 100.74336498650663 343.1870891160851 L 100.09800340873116 330.13644387626016 L 100.05174093015304 329.1198259069748 L 99.96731190645212 327.2311602142074 L 89.7953494034482 331.19007182852295 L 89.8739956171625 333.14581811536016 L 89.88209155094654 333.3401205259306 L 90.02203554907268 336.8005539323178 L 91.46195519843255 373.4242451911541 L 91.53019235440101 374.96362916971987 L 70.45532018501808 375.2354212320238 L 70.9873386899813 412.44201972240717 L 72.13233503774822 445.311510835162 L 72.3289505721983 455.153853177475 L 72.35208181148735 459.537223033846 L 88.64803993171952 459.46782931581447 L 128.2591307522655 459.1173910397141 L 128.4025444362521 460.19068054540554 L 140.59849038230823 460.02529218411075 L 140.7858534209112 463.61757365475785 L 162.79175797414416 463.2312819576608 L 162.7975407839664 466.1932371561197 L 185.8038714389166 465.7895970294737 L 185.46731190650473 459.50715242267165 L 205.74531288050588 459.12548697349814 L 228.09355977597298 458.6385743852143 L 228.4012052592735 464.429480155809 L 242.05673240811805 464.39247017291365 L 242.0625152179403 464.87591307525486 L 246.7188336985961 464.85278183588355 L 247.13519600678532 466.06023252979674 L 248.12752617488283 467.6262174336764 L 249.5096177258557 469.2442476260386 L 251.45958120278843 470.67607134161443 L 254.07688093505135 472.3611821280465 L 256.667579741836 473.83117238858074 L 259.87472607744917 475.1542792792678 L 264.2604090576998 476.55024957392914 L 268.51887022153187 477.2881361091074 L 271.27148770383303 477.46855977598943 L 273.2584611638255 477.35984295110075 L 281.3208546383419 484.86014730947954 L 288.8223155587838 479.99680423671003 L 301.8579254931037 471.33878134893894 L 308.4110056002288 466.6373569515215 L 319.7811663014631 457.1130691502549 L 351.83412466524317 432.4840820550189 L 351.8352812271419 428.83050280012424 L 351.29169710253416 422.43471512050996 L 350.95629413202096 419.67053201848205 L 350.4936693450893 410.938489164838 L 353.034635987271 410.8609995130224 L 353.7320428536112 410.79970172877495 L 354.3565863160594 410.79970172877495 L 358.5780374969961 410.7650048697592 L 362.17494521548457 410.61465181396943 L 361.75858290729536 405.07471999026916 L 354.3565863160594 405.0631543705424 L 354.3565863160594 401.22336863886136 L 354.1946676407073 387.19427197462744 L 354.9579985390542 387.1595751156117 L 354.8423423422802 383.6089298757835 L 355.0852203554727 380.1392439737135 L 353.8361334307407 380.11611273434227 L 353.4775992207741 371.9623508644039 L 353.4197711225514 369.2906927196966 L 370.18991964935987 368.2150900900434 L 369.1721451181759 367.1279218407457 L 368.15668371078925 366.04075359144804 L 354.1252739225114 351.0285792548815 L 353.5238616995166 350.60065132696553 L 352.9802775749088 350.2189858777099 L 353.10749939132734 348.75015217915654 L 352.41356221084766 328.0361273435376 L 351.65023131233636 315.3717738008097 L 351.4651813976952 307.10235573409733 L 351.17604090576015 304.5116569271483 L 360.3013148283044 304.4538288287613 L 360.27818358901527 301.13449598239896 L 351.17604090576015 301.18075846114147 L 350.6995373752221 285.6273131239289 L 349.9269539810281 267.62889578763355 L 348.87448259074614 234.97915144870007 L 380.42549306057305 220.95005478446612 L 400.62716094482164 212.02486608223245 L 458.31994156321866 188.85546018986707 L 457.9729729730609 187.34036401257123 L 457.8920136352205 184.72653396633316 L 460.58680301929905 183.43118456285865 L 461.15351838336016 186.4035488190633 L 484.0615412710032 180.00776113944897 L 487.5 179.04781470656982 L 485.7073289506602 170.62804358406765 L 484.67798879966733 157.11939980515245 L 484.5738982225378 152.13461772578665 L 480.5606281958601 136.16249695634093 L 466.3233503774494 136.16249695634093 L 467.79218407608494 143.12499999993426 L 455.0711589969509 143.5980338446118 L 454.95318967621506 139.35460798628475 L 454.3725955685476 126.74461285600118 L 454.3517774532203 126.25538714383775 L 454.26850499158246 124.22909057698813 L 454.0140613587454 118.06808497678233 L 453.934258582968 116.14240930111956 L 397.70452885322 117.07922449470965 L 373.2432432432406 117.11392135372543 L 353.80837594352806 117.31631969799778 L 341.99525200879066 117.47014243964804 L 340.74732164595736 117.48402118325436 L 340.9936693450104 126.11544314579378 L 332.00371317266877 126.22184684680286 L 331.54224494763577 116.42692354513102 L 325.79991477966314 116.52985756019746 L 326.136474312075 125.41803627945356 L 328.7503043584775 125.4411675188248 L 328.877526174896 128.12439128309444 L 331.04029705384687 128.18221938148145 L 330.2191380569486 140.03697954703776 L 329.8606038471464 141.88747869484675 L 340.85950815687085 141.64460068173636 L 341.72692963234726 151.77608351590226 L 334.4984173362723 152.43532383728405 L 329.13196980773307 151.82234599456257 L 328.73873873866853 159.98767348422763 L 313.992573654748 160.2536827367092 L 306.0585585585488 158.7038897004798 L 302.09155101044917 156.36763452636785 L 308.77647918191633 152.12305210605996 L 309.4935476016851 131.94104577540423 L 309.0193571951089 129.1074689553448 L 309.3663257852666 125.71874239095095 L 321.40613586562847 125.04793644992463 L 321.93815437059175 116.46624665198817 L 313.992573654748 116.5356403700197 L 298.6449963476683 117.03296201596717 L 292.44582420258627 116.98669953730689 L 272.10421232037584 117.40074872161651 L 272.24531288040066 120.35923423413269 L 272.49513026531423 129.97373386892252 L 269.59215972730544 138.41779279269463 L 254.85756026302943 138.42935841242132 L 255.04376673973368 132.3192415387994 L 255.2045288531871 127.01409179442547 L 249.24823472113326 127.083485512457 L 248.97065984900712 119.32295471141882 L 248.69308497688095 117.36836498656251 L 245.33905527142068 117.33366812754676 L 230.50036523001515 117.79629291447844 L 227.79401022645646 117.59967738002837 L 224.54407109812564 117.68063671770443 L 219.31641100564948 118.0854334063313 L 218.9463111760384 107.6185476015701 L 218.1482834185935 96.38833089837979 L 217.28086194295275 64.61757365464936 L 216.87606525440808 35.25246530306242 L 216.62162162157097 35.25246530306242 L 216.15899683463928 35.240899683335726 L 214.65546627707016 35.2293340636912 L 209.9482590699127 35.333424640738485 L 201.33187241287828 35.50690893589953 L 185.18626734835374 35.83074628676815 L 175.00852203552756 36.75599586063154 L 175.00852203552756 36.03892744086275 L 175.00852203552756 33.98024713895916 L 173.30837594350834 34.211559532425014 L 173.15802288780074 30.684045531885886 L 172.96140735335064 27.029309715010356 L 177.9808862917322 27.133400292057672 L 178.05028000976375 25.132548088541085 L 172.86888239586568 25.72239469189134 L 172.90357925496363 23.5596238129404 L 173.07706354996031 21.871043340565734 L 178.59386413437153 21.54720598969712 L 178.05028000976375 16.944089359504773 L 172.7300949598026 17.221664231713106 L 172.7300949598026 15.903183588867364 L 172.7300949598026 15.533083759338439 L 172.57974190409502 15.533083759338439 L 171.64292671042273 15.544649378982967 L 170.48636474301128 15.567780618354192 L 170.49793036282017 15.949446067609841 L 139.23953007062443 16.543918918801467 L 139.4361456050745 29.603816654391295 L 141.31324567811524 29.588781348804105 L 141.19065010945587 28.24369978080881 L 144.151448746016 28.17430606269511 L 144.209276844403 30.53369247617826 L 147.34355977595982 30.53369247617826 L 147.2857316775728 28.093346725019018 L 149.136230825464 28.04708424627654 L 149.26345264171817 31.123539079528513 L 147.36669101524888 31.158235938544294 L 147.36669101524888 35.25246530306242 L 147.35512539560435 35.39125273912552 L 139.34015096172908 35.49534331617281 L 139.34015096172908 35.2293340636912 L 139.43267591904967 31.204498417204576 L 135.51193084969253 31.18136717791552 L 135.30374969559793 26.79799732154453 L 135.06087168240538 21.350590455247016 L 131.02447041627423 21.558771609341647 L 117.19198928657255 21.871043340565734 L 116.79875821767237 15.13985269043826 L 111.99902605302998 15.405861942919898 L 112.19564158748005 16.77060506442595 L 112.47321645960619 27.260622108476213 L 109.39676162643642 27.30688458721869 L 100.90759678598491 27.283753347847465 L 100.8497686875979 25.548910396812488 L 100.81507182849995 24.542701485190832 L 86.76284392489475 24.334520331014033 L 78.57438519602283 24.450176527788045 L 78.1464572680247 21.30432797650454 L 74.90808375933844 21.350590455247016 L 74.73459946434178 19.96271609436974 L 77.39469198915796 19.95115047472521 L 77.38312636951343 19.025900900779618 L 74.4917214511492 19.04903214015087 L 74.57268078882527 17.59176406124203 L 73.18480642803016 17.626460920257813 L 72.49086924755045 17.63802653998451 L 72.46773800826136 16.967220598876025 L 72.43304114916342 16.08823350367291 L 60.97151205250725 16.273283418478456 L 60.45105916718856 16.296414657767514 L 60.50888726557557 17.869338933450365 L 60.48575602628651 18.389791818769083 L 60.47419040664198 18.702063549911003 L 60.46262478683309 19.025900900779618 Z" fill="black" />
</svg>